<svg xmlns="http://www.w3.org/2000/svg" viewBox="0 0 629.32 167.15"><defs><style>.cls-1{fill:#339B76;}</style></defs><title>Asset 1</title><g id="Layer_2" data-name="Layer 2"><g id="Layer_1-2" data-name="Layer 1"><path class="cls-1" d="M26.13,125.7q-13.89,0-20.68-11.32Q.11,105.85,0,93.91a48.53,48.53,0,0,1,.93-9.36,63.61,63.61,0,0,1,4-13.37A65.83,65.83,0,0,1,18,50.71a27.41,27.41,0,0,1-9.57-5A23,23,0,0,1,5.35,14.61,34.28,34.28,0,0,1,14.2,6.48,36.45,36.45,0,0,1,24.89,1.34,27.24,27.24,0,0,1,33.33,0,26.36,26.36,0,0,1,39,.51q9,1.75,13.57,8A15.84,15.84,0,0,1,55.86,17a4.3,4.3,0,0,1-4.53,3.6,11.27,11.27,0,0,1-4.06-.92,9.89,9.89,0,0,1-4-2.88,6.29,6.29,0,0,0-.93-.93,10.47,10.47,0,0,0-1.44-.92l-.62-.31q-2.67-1.44-7.35-.83A15.57,15.57,0,0,0,25.1,17H25q-7.3,5.57-7.72,10.19a7.67,7.67,0,0,0,4,7.2,42.08,42.08,0,0,0,16.05,3.49l2.16-.72,4.11-.92A13.7,13.7,0,0,1,47,35.8a8.77,8.77,0,0,1,6.89,3.39,7.93,7.93,0,0,1,1.65,4.73,14.81,14.81,0,0,1-.67,3.4c-.45,1.57-2.63,2.88-6.53,3.91a51.57,51.57,0,0,0-7.1,3,67.85,67.85,0,0,0-7.41,5.14,49.32,49.32,0,0,0-6.79,7.51,61.29,61.29,0,0,0-7,15.23,44,44,0,0,0-1.65,10q0,2.26.21,4.53a27.49,27.49,0,0,0,1.85,7.2q2.05,4.42,6.17,4.42,3.81,0,9-3.49a38.78,38.78,0,0,0,13-13.38A31.13,31.13,0,0,0,51,85.89q2.48-7,9.26-7t7.51,7.51q-.83,11-10,22-9.87,10.69-20.06,14.91A29.31,29.31,0,0,1,26.13,125.7Z"/><path class="cls-1" d="M81.16,123.85a9.76,9.76,0,0,1-3.39-.82q-3.3-1.14-5.87-16.46-1-6.58-1.64-14.4-.42-5.46-.42-11,0-7.2.52-14.2.72-9.36,1.75-15.53A68.26,68.26,0,0,1,75.4,38.37Q80.23,25,89.7,21.19a18.84,18.84,0,0,1,6.07-1.13q7.31,0,13.37,6.79,5.76,6.48,9.57,20.78l.1.3a56.06,56.06,0,0,1,4.52-9.36A35.19,35.19,0,0,1,136.6,25.82a19.39,19.39,0,0,1,8.34-2.06A14.66,14.66,0,0,1,150.8,25a16.09,16.09,0,0,1,6.68,6,27,27,0,0,1,3.4,8.44A64.65,64.65,0,0,1,162.11,49l.11,5.35v5.76q0,2.88-.31,12.45a10.68,10.68,0,0,0-.1,1.54l-.52,11.52-.1,5.15q0,10.08-1.13,14.09-2.16,6.27-6.69,6.27-4.32,0-6.38-6.17a27.77,27.77,0,0,1-.92-6.27L146,90.83l.11-5.56q0-3.8.2-6.68l.21-6.59q.3-3.07.31-11.93-.1-18.1-3.5-18.1-2.06,0-5.45,7.92a60.72,60.72,0,0,0-3.19,7.3l-.52,1.44c-1.09,3.71-2.09,7.37-3,11q-.51,2-1.85,9.26-.72,3.6-1.34,7.3c-.2,1.51-.44,3-.72,4.42-.13.55-.34,1.79-.61,3.71a13.23,13.23,0,0,1-.72,2.67,5,5,0,0,1-2.88,3.4l-6,.92q-3.6-.3-5-6.48a220.78,220.78,0,0,0-8.23-37.65l-.41-1.54q-1.65-5.86-3-9.57Q98,41.36,96.28,41.35q-2.57,0-4.32,10.49a144.43,144.43,0,0,0-2.57,24.07L89.29,78c0,1.92,0,3.81.1,5.66q.4,13.47.82,15.74.83,9.15,1.54,14.5l.52,2.88c-.14.76-.94,1.8-2.42,3.14a17,17,0,0,1-5.4,3.24A8.63,8.63,0,0,1,81.16,123.85Z"/><path class="cls-1" d="M194.31,113.05A25.62,25.62,0,0,1,179,107.9a28,28,0,0,1-8.33-10.49A55.57,55.57,0,0,1,164.27,71a61,61,0,0,1,2.37-16.77,3.5,3.5,0,0,0,.31-.93A44.81,44.81,0,0,1,169,47.42Q177.13,32,191.43,32A25.9,25.9,0,0,1,203,34.77a28.68,28.68,0,0,1,9.88,8.12,48,48,0,0,1,9.67,22.33,50.17,50.17,0,0,1,.51,7.61,41.55,41.55,0,0,1-.31,5,50.9,50.9,0,0,1-2.57,12.24A63,63,0,0,1,215,100.6a32.3,32.3,0,0,1-7.92,8.44A23.16,23.16,0,0,1,194.31,113.05Zm-.41-17.18a8.27,8.27,0,0,0,2.26-.72c1.17-.48,2.81-2.64,4.94-6.48a20.43,20.43,0,0,0,1.75-3.5V85a39.78,39.78,0,0,0,2.36-8.54l.11-.31a20.18,20.18,0,0,0,.31-3.4,32.18,32.18,0,0,0-.42-5.55,28.62,28.62,0,0,0-2.72-8.49,27.25,27.25,0,0,0-4.37-6.63q-4.53-3.91-7.1-3.91c-1.85,0-3.52,1.68-5,5A41.1,41.1,0,0,0,183,64a42.32,42.32,0,0,0-.62,7.3,39.88,39.88,0,0,0,5,19.34Q191.23,95.87,193.9,95.87Z"/><path class="cls-1" d="M253.46,108.93a17.94,17.94,0,0,1-11-3.6q-6-4.42-9.26-14.91A54.44,54.44,0,0,1,230.72,80a16.43,16.43,0,0,0-.3-2l-.52-4a15.92,15.92,0,0,0-.2-2.47,136.48,136.48,0,0,1-.52-14.29l.21-3.5q.11-3.49.51-7.1a35.34,35.34,0,0,1,.62-4.22,25.23,25.23,0,0,0-5.76,1.34l-2.16.51-1.34.11A17.64,17.64,0,0,0,219,43.31c-3.16-1.1-4.73-2.44-4.73-4q0-1.53,3.49-4l.21-.1a45.08,45.08,0,0,1,11-4.53,25.45,25.45,0,0,1,4-.82l.1-.62.62-2.16a28.49,28.49,0,0,1,2.36-7.61Q238.84,14,242.66,14q5,.11,8.84,7L251,23.45l-.72,3.4L250,28.08a.41.41,0,0,1-.1.31l1,.1c2.19,0,4,0,5.45.11a38.24,38.24,0,0,1,4.21.41,27.88,27.88,0,0,1,7.21,1.13,4.33,4.33,0,0,1,1.95,3.6,16.58,16.58,0,0,1-.31,2.11,8.8,8.8,0,0,1-2.57,4.06,8.75,8.75,0,0,1-5.14,2.78l-3.09-.31q-5-.62-7.3-.72l-3.29-.1-.11.51c-.13,1.65-.31,3.26-.51,4.84a12.39,12.39,0,0,1-.21,2.46q-.51,6.69-.51,9.06l-.21,2.47q0,9,.31,12c0,.82.14,2.61.41,5.35.28,1.51.53,3,.77,4.42s.54,2.81.88,4.12a23,23,0,0,0,2.26,6q1.54,2.83,3.7,2.83,1.86,0,4-3.7A14.34,14.34,0,0,0,260,89.7q2.06-5.15,4.32-5.15,2.58,0,3.19,9.26a1.15,1.15,0,0,0-.1.52v.61a16.59,16.59,0,0,1-2.57,7.92,12.68,12.68,0,0,1-11.42,6.07Zm-3.6-67.37a10.77,10.77,0,0,1-1.55-.11H248v.11Z"/><path class="cls-1" d="M279.07,26.54l-3.09-.1q-2.88-.11-4.21-6V14.4a24.06,24.06,0,0,1,.1-2.67V11q1-8.85,7.92-8.85a7.35,7.35,0,0,1,4.73,1.65q2.78,2.35,2.78,7.71a27.9,27.9,0,0,1,.31,4,37.7,37.7,0,0,1,.31,4.94,8.79,8.79,0,0,1-.31,2.26A11,11,0,0,1,279.07,26.54Zm7.1,92.78q-4.94,0-8.13-6.58-2.57-8.53-3.8-27l-.31-3.3q-.42-6.78-.52-7-.72-12.14-.61-17.28c0-4.39.06-7.79.2-10.19.41-3.84,1.54-6.61,3.4-8.33a8.08,8.08,0,0,1,5.45-2.16,7.67,7.67,0,0,1,6.27,3.09,9.33,9.33,0,0,1,2,6.17L290,48.14l.11,5.45.31,6.38c.06,1.44.17,2.85.3,4.22l.42,6.79c.27,2.6.48,5.21.61,7.81l1.85,19a114.63,114.63,0,0,1,1,13C293.51,116.48,290.69,119.32,286.17,119.32Z"/><path class="cls-1" d="M333,115.83q-11.93,0-21.6-9.67a49.5,49.5,0,0,1-7.92-11,53.63,53.63,0,0,1-6.79-26.85V66.76q.93-16.46,8.85-26.64a41.78,41.78,0,0,1,9.25-8.75,31.63,31.63,0,0,1,10.8-5,30.55,30.55,0,0,1,6.18-.61,20,20,0,0,1,9.05,2.05,14.85,14.85,0,0,1,6.89,6.69,15.56,15.56,0,0,1,2,7.71l-.31,3.91a16.56,16.56,0,0,1-6.48,10.19,10.83,10.83,0,0,0-1.55,1.44,2.66,2.66,0,0,1-1.95.82,8.59,8.59,0,0,1-3-.62q-3.19-1.33-3.19-3.7a4.31,4.31,0,0,1,.31-1.54,4.82,4.82,0,0,0,.61-1.75,17.86,17.86,0,0,0,.72-3.19V46.19c-.61-2.34-2-3.5-4.11-3.5q-4.74,0-10.39,6.48A24.48,24.48,0,0,0,316,56.88a.1.1,0,0,1-.1.11,47.82,47.82,0,0,0-1.19,5.09,36.93,36.93,0,0,0-.46,6.32,39,39,0,0,0,1.44,9.88,41.26,41.26,0,0,0,4.22,9.77q6.27,10.29,13.16,10.29,6.18,0,12.76-8.13a64.56,64.56,0,0,0,3.6-5.86l1.13-2q2.26-3.6,5.66-3.6a9.12,9.12,0,0,1,6.07,2.68,1.21,1.21,0,0,1,.25.72c0,.34.07.72.11,1.13a4.06,4.06,0,0,0,.15.93l.1,2q0,7.92-5.65,16a31.87,31.87,0,0,1-9.67,9.05A26.29,26.29,0,0,1,333,115.83Z"/><path class="cls-1" d="M395,113.05a25.6,25.6,0,0,1-15.33-5.15,28,28,0,0,1-8.33-10.49A55.57,55.57,0,0,1,365,71a61,61,0,0,1,2.37-16.77,3.9,3.9,0,0,0,.31-.93,46.27,46.27,0,0,1,2.05-5.86Q377.82,32,392.12,32a25.9,25.9,0,0,1,11.52,2.78,28.56,28.56,0,0,1,9.87,8.12,47.83,47.83,0,0,1,9.67,22.33,48.81,48.81,0,0,1,.52,7.61,43.68,43.68,0,0,1-.31,5,50.9,50.9,0,0,1-2.57,12.24,62.17,62.17,0,0,1-5.15,10.49,32,32,0,0,1-7.92,8.44A23.11,23.11,0,0,1,395,113.05Zm-.41-17.18a8.38,8.38,0,0,0,2.26-.72c1.17-.48,2.81-2.64,4.94-6.48a21.18,21.18,0,0,0,1.75-3.5V85a39.78,39.78,0,0,0,2.36-8.54l.1-.31a19.19,19.19,0,0,0,.31-3.4,32.26,32.26,0,0,0-.41-5.55,28.62,28.62,0,0,0-2.72-8.49,27,27,0,0,0-4.38-6.63c-3-2.61-5.38-3.91-7.09-3.91s-3.52,1.68-5,5a41.11,41.11,0,0,0-3,10.8,43.33,43.33,0,0,0-.61,7.3,39.88,39.88,0,0,0,5,19.34Q391.91,95.87,394.59,95.87Z"/><path class="cls-1" d="M435.63,117.27a10.77,10.77,0,0,1-5.61-1.91c-2-1.27-3.2-3.68-3.55-7.25q-.72-6.8-.72-20.16l.11-2.26q.11-7.83.61-16.15a35.58,35.58,0,0,1,.21-3.81,101.29,101.29,0,0,1,2.16-17.08L430.07,44a25.7,25.7,0,0,1,3.81-8.13,11.91,11.91,0,0,1,10.39-5.66,14.72,14.72,0,0,1,3.81.52,19.62,19.62,0,0,1,7.4,5.14,49.25,49.25,0,0,1,4.84,6.58,86,86,0,0,1,5.76,10.19l1.23,2.57c.55,1.1,1.06,2.23,1.54,3.39,1.44,3.23,2.34,5.39,2.68,6.48q2.06,4.64,2.78,6.79l4.93,11.93.42-6q.3-4.94.3-8.75l.11-3.7-.11-2c0-2.68,0-4.46-.1-5.35q0-5.86.31-9.88V43.82l-.1-1.44a13.43,13.43,0,0,1,.31-2.88q1.85-5.76,6.06-5.76c2.27,0,4.15,1.65,5.66,4.94a20.11,20.11,0,0,1,1,4.32c.21,1.57.58,3.67,1.13,6.27a91.67,91.67,0,0,1,1.85,13.48l.62,5.76a113.44,113.44,0,0,1,1.13,14.19q0,2.05-.51,8.13l-.1.31q-.72,9-4.63,14.5A12.8,12.8,0,0,1,482,111a14.53,14.53,0,0,1-11.11-5.25,34.74,34.74,0,0,1-6.48-9.36q-3.6-7.2-8.12-18.92a16.74,16.74,0,0,0-.57-1.6q-.36-.87-4.48-11.57a.41.41,0,0,0-.1-.31,68.52,68.52,0,0,0-4.11-9.67l-.31-.61-1.65,13.16A5.66,5.66,0,0,1,445,68q-.4,5.25-.62,10.19c0,1-.13,4.32-.41,10.08-.2,6.92-.38,11.59-.51,14l-.41,6.37c-.07,1-.18,2-.31,3Q441.4,117.26,435.63,117.27Z"/><path class="cls-1" d="M507.22,26.54l-3.08-.1q-2.88-.11-4.22-6V14.4a24.06,24.06,0,0,1,.1-2.67V11q1-8.85,7.92-8.85a7.33,7.33,0,0,1,4.73,1.65c1.86,1.57,2.78,4.14,2.78,7.71a27.9,27.9,0,0,1,.31,4,36,36,0,0,1,.31,4.94,8.38,8.38,0,0,1-.31,2.26A11,11,0,0,1,507.22,26.54Zm7.1,92.78q-4.94,0-8.13-6.58-2.56-8.53-3.8-27l-.31-3.3c-.27-4.52-.45-6.85-.51-7q-.72-12.14-.62-17.28,0-6.59.2-10.19c.42-3.84,1.55-6.61,3.4-8.33A8.08,8.08,0,0,1,510,37.44a7.7,7.7,0,0,1,6.28,3.09,9.38,9.38,0,0,1,2,6.17l-.1,1.44.1,5.45.31,6.38c.07,1.44.17,2.85.31,4.22l.41,6.79c.27,2.6.48,5.21.62,7.81l1.85,19a117.06,117.06,0,0,1,1,13Q521.11,119.33,514.32,119.32Z"/><path class="cls-1" d="M542.61,112.94q-8,0-11.21-22l-.11-.92A90.32,90.32,0,0,1,530,79.21,133.31,133.31,0,0,1,529,63.26l.1-7,.11-.62a11.94,11.94,0,0,1-2.16.21,6.26,6.26,0,0,1-2.58-.52q-3.5-1.44-4.21-3.29a5.35,5.35,0,0,1-.52-2.26,4.08,4.08,0,0,1,1-3q1.76-1.63,9.57-4.21a77.15,77.15,0,0,1,3.29-14.1,53.65,53.65,0,0,1,7.1-14q7.4-10.08,18-12.65a28.32,28.32,0,0,1,5.45-.62c3.36.48,5,2.1,5,4.84q0,3.81-4.22,6.07l-.72.2a9.93,9.93,0,0,0-5.14,2.37,30.72,30.72,0,0,0-7.72,11.62,56,56,0,0,0-3.39,12.35q10.29,1.55,10.29,7.61,0,4.73-9.47,6.27l-2.26.42c-.07,1.57-.1,3.18-.1,4.83q0,8,2.16,25.3,1.34,9.36,1.75,16.57Q549.8,112.94,542.61,112.94Z"/><path class="cls-1" d="M603.3,167.15a31.71,31.71,0,0,1-13.58-3.29,26.34,26.34,0,0,1-5.86-4.11,1.84,1.84,0,0,0-.52-.52,28.47,28.47,0,0,1-2.47-3.08q-4.22-6.28-4.21-11.83a17.42,17.42,0,0,1,1-5.86q3-4.53,7.41-4.53c.21,0,1.17.07,2.88.2s3.53,2,5.45,5.56a13,13,0,0,1,.31,1.75v1.44q2.78,8.33,8.64,8.33c.21,0,1.43-.09,3.65-.26s3.72-3.68,4.48-10.54l.1-2.57a101.67,101.67,0,0,0-.51-11.11q0-.83-.41-5.76l-1.44-12.65-.31-2.06a22.46,22.46,0,0,1-6.38,6.58,19.25,19.25,0,0,1-11.32,3.71,25.27,25.27,0,0,1-14.5-4.33,31.21,31.21,0,0,1-8.43-9l-.31-.41a65.89,65.89,0,0,1-6.79-17.9,68.79,68.79,0,0,1-1.65-15l.11-7.4a104.37,104.37,0,0,1,1.64-13.37q4-15.33,13.06-15.33A7.43,7.43,0,0,1,578.61,36a9.48,9.48,0,0,1,2.78,7.31,20.51,20.51,0,0,1-.62,4.73A60.11,60.11,0,0,0,579,57.3c-.34,4.38-.51,7.78-.51,10.18q0,2.88.51,8.33a40.78,40.78,0,0,0,.83,5.76,53,53,0,0,0,3.08,9.77l.31.52q3.5,7.92,7.82,7.92,3.18,0,8.33-6.17l1.85-2.27c1-1.09,1.85-2.19,2.68-3.29l1.44-2V86q-.42-4.72-1.86-15.22-.72-5.25-1.44-13.89l-.51-6.17-.21-1.54-.3-7a7.86,7.86,0,0,0-.11-1.33c.14-3,1.13-5.3,3-6.84a10.35,10.35,0,0,1,6.89-2.32,9.21,9.21,0,0,1,5.71,2q2.61,2,2.72,6.22c.14.82.24,1.6.31,2.32s.14,1.38.21,2l.41,3.4.1,1.85,1.34,12.44q.51,3.51.87,7.15t.88,7.36l.1,1.34q2.06,15.93,2.67,21.29l2.27,20.47.51,6c.28,3,.41,6.52.41,10.7a45.58,45.58,0,0,1-1.85,14.2,27.39,27.39,0,0,1-3.8,8q-3.6,4.83-11,7.3a26.59,26.59,0,0,1-6.58,1.34Z"/></g></g></svg>